# xmcd
#
# Track frame offsets: 
#        150
#        12850
#        26207
#        39022
#        51430
#        64275
#        76777
#        89027
#        103442
#        115672
#        127197
#        140110
#        153437
#        165930
#        179165
#
# Disc length: 2558 seconds
#
# Revision: 0
# Processed by: cddbd v1.5.2PL0 Copyright (c) Steve Scherf et al.
# Submitted via: ExactAudioCopyFreeDBPlugin 1.0
#
DISCID=d309fc0f
DTITLE=Various Artist - OKeh Chicago Blues
DYEAR=1982
DGENRE=Blues
TTITLE0=Johnny Shines - Tennessee Woman Blues
TTITLE1=Johnny Shines - Delta Pine Blues
TTITLE2=Johnny Shines - Ride, Ride Mama
TTITLE3=Johnny Shines - Evil-Hearted Woman Blues
TTITLE4=Muddy Waters - Jitterbug Blues
TTITLE5=Muddy Waters - Hard Day Blues
TTITLE6=Muddy Waters - Burying Ground Blues
TTITLE7=Big Joe Williams - P Vine Blues
TTITLE8=Big Joe Williams - Bad and Weak Hearted Blues
TTITLE9=Big Joe Williams - King Biscuit Stomp
TTITLE10=Big Joe Williams - I'm a Highway Man
TTITLE11=Big Joe Williams - Banta Rooster Blues
TTITLE12=Big Joe Williams - Mean Step Father Blues
TTITLE13=Big Joe Williams - House Lady Blues
TTITLE14=Big Joe Williams - Don't You Leave Me Here
EXTD=
EXTT0=
EXTT1=
EXTT2=
EXTT3=
EXTT4=
EXTT5=
EXTT6=
EXTT7=
EXTT8=
EXTT9=
EXTT10=
EXTT11=
EXTT12=
EXTT13=
EXTT14=
PLAYORDER=
